<svg preserveAspectRatio="none" overflow="visible" style="display: block;" width="15" height="14" viewBox="0 0 15 14" fill="none" xmlns="http://www.w3.org/2000/svg">
<g id="Group">
<path id="Vector" fill-rule="evenodd" clip-rule="evenodd" d="M3.75 14C2.75544 14 1.80161 13.5903 1.09835 12.861C0.395088 12.1317 0 11.1425 0 10.1111V7.77778C0 7.5715 0.0790176 7.37367 0.21967 7.22781C0.360322 7.08194 0.551088 7 0.75 7C0.948912 7 1.13968 7.08194 1.28033 7.22781C1.42098 7.37367 1.5 7.5715 1.5 7.77778V10.1111C1.5 10.7299 1.73705 11.3234 2.15901 11.761C2.58097 12.1986 3.15326 12.4444 3.75 12.4444H11.25C11.8467 12.4444 12.419 12.1986 12.841 11.761C13.2629 11.3234 13.5 10.7299 13.5 10.1111V7.77778C13.5 7.5715 13.579 7.37367 13.7197 7.22781C13.8603 7.08194 14.0511 7 14.25 7C14.4489 7 14.6397 7.08194 14.7803 7.22781C14.921 7.37367 15 7.5715 15 7.77778V10.1111C15 11.1425 14.6049 12.1317 13.9017 12.861C13.1984 13.5903 12.2446 14 11.25 14H3.75Z" fill="white"/>
<path id="Vector_2" fill-rule="evenodd" clip-rule="evenodd" d="M4.20736 4.69226C4.14056 4.62001 4.08787 4.53453 4.05229 4.44071C4.01672 4.34689 3.99897 4.24656 4.00005 4.14547C4.00113 4.04438 4.02102 3.9445 4.05859 3.85156C4.09615 3.75861 4.15066 3.67442 4.21899 3.60379L7.4888 0.219139C7.62456 0.0786559 7.80687 0 7.99671 0C8.18655 0 8.36886 0.0786559 8.50462 0.219139L11.7744 3.60379C11.8441 3.67403 11.8999 3.75824 11.9386 3.85151C11.9773 3.94477 11.9982 4.04525 11.9999 4.14711C12.0016 4.24896 11.9842 4.35017 11.9487 4.44484C11.9132 4.53952 11.8602 4.62578 11.793 4.69863C11.7257 4.77147 11.6454 4.82945 11.5568 4.86919C11.4682 4.90892 11.373 4.92963 11.2768 4.93011C11.1806 4.9306 11.0852 4.91084 10.9963 4.87199C10.9073 4.83314 10.8265 4.77597 10.7586 4.7038L8.72333 2.59685V9.23076C8.72333 9.43478 8.64678 9.63044 8.51051 9.7747C8.37424 9.91896 8.18942 10 7.99671 10C7.804 10 7.61918 9.91896 7.48291 9.7747C7.34664 9.63044 7.27009 9.43478 7.27009 9.23076V2.59685L5.23554 4.7038C5.16729 4.77452 5.08655 4.8303 4.99792 4.86796C4.9093 4.90562 4.81453 4.92441 4.71904 4.92327C4.62355 4.92213 4.52921 4.90107 4.44141 4.8613C4.35361 4.82153 4.27408 4.76382 4.20736 4.69149V4.69226Z" fill="white"/>
</g>
</svg>
